<svg xmlns="http://www.w3.org/2000/svg" viewBox="200 10 1040 320">
    <path fill="#6c30c8" x="50" y="290" font-family="arial" font-size="40" stroke="#e1d2f3" stroke-width="10" fill-opacity="1" d="M0,0L40,42.7C80,85,160,171,240,202.7C320,235,400,213,480,181.3C560,149,640,107,720,122.7C800,139,880,213,960,245.3C1040,277,1120,267,1200,229.3C1280,192,1360,128,1400,96L1440,64L1440,0L1400,0C1360,0,1280,0,1200,0C1120,0,1040,0,960,0C880,0,800,0,720,0C640,0,560,0,480,0C400,0,320,0,240,0C160,0,80,0,40,0L0,0Z"></path>
</svg>
